<svg width="110" height="24" viewBox="0 0 110 24" fill="none" xmlns="http://www.w3.org/2000/svg">
<g clip-path="url(#clip0_39694_4803)">
<path d="M62.7568 3.91504C60.0905 3.91504 57.7605 5.32048 56.4482 7.43015V3.91802H50.3299C47.7737 3.91802 45.5211 5.20411 44.1849 7.16756V3.92101H39.623V18.7602H44.1849V15.5137C45.5211 17.4801 47.7737 18.7662 50.3299 18.7662H50.7317H56.4482V15.2511C57.7575 17.3608 60.0905 18.7662 62.7568 18.7662H63.1586H70.8361V14.7498H63.0752L63.0842 14.7558C61.9563 14.7558 60.9594 14.2008 60.3435 13.3533H70.8391V9.3369H60.3554C60.9743 8.49542 61.9653 7.94637 63.0871 7.94637L63.6019 7.93742H70.8391V3.92101H62.7598L62.7568 3.91504ZM50.6513 14.7468L50.6602 14.7528C48.7855 14.7528 47.2649 13.228 47.2649 11.3481C47.2649 9.46819 48.7855 7.94339 50.6602 7.94339L51.1751 7.93444H56.1625C55.6358 8.95495 55.3322 10.1097 55.3322 11.3391C55.3322 12.5685 55.6358 13.7263 56.1625 14.7468H50.6513Z" fill="black"/>
<path d="M79.8645 3.91509H79.064H71.7822V7.93449H79.0193L79.5342 7.94046C81.4089 7.94046 82.9295 9.46824 82.9295 11.3452C82.9295 13.2221 81.4089 14.7439 79.5342 14.7439H79.5431H71.7822V14.8364V24.0001H76.3441V18.7603H79.8645C83.9651 18.7603 87.292 15.4481 87.292 11.3362C87.292 7.22431 83.9681 3.91211 79.8645 3.91211V3.91509Z" fill="black"/>
<path d="M105.438 3.9209L105.423 18.7601H109.994L110 3.9209H105.438Z" fill="black"/>
<path d="M104.284 9.33988C104.284 6.34398 101.846 3.91504 98.8588 3.91504H88.1162V7.93443H98.5136C99.2873 7.93443 99.9122 8.56405 99.9122 9.33988C99.9122 10.1157 99.2873 10.7423 98.5136 10.7423L96.5317 10.7483H88.1162V14.7677V18.7632H92.6781V14.7677H95.8622C98.0018 14.8393 99.7129 16.5939 99.7129 18.7573L104.263 18.7632C104.263 16.761 103.462 14.9497 102.156 13.6398C103.447 12.6491 104.287 11.0944 104.287 9.33988H104.284Z" fill="black"/>
<path d="M20.8099 6.39815L28.5112 1.30751C28.0589 1.06283 27.5887 0.847983 27.1007 0.668945L20.5361 5.83717C20.6343 6.02217 20.7266 6.20718 20.8099 6.39815Z" fill="black"/>
<path d="M21.4433 8.19384L30.1416 2.39003C29.7666 2.08865 29.3708 1.81413 28.9602 1.56348L21.2559 7.5493C21.3243 7.76116 21.3868 7.97601 21.4433 8.19384Z" fill="black"/>
<path d="M21.7648 10.1991L31.4867 3.66722C31.1802 3.32108 30.8499 2.99284 30.5017 2.68848L21.6934 9.47997C21.7261 9.71869 21.7499 9.95741 21.7648 10.1991Z" fill="black"/>
<path d="M21.6758 12.4852L32.5791 5.1268C32.3351 4.7359 32.0672 4.3629 31.7786 4.00781L21.7621 11.6885C21.7442 11.9571 21.7145 12.2227 21.6788 12.4852H21.6758Z" fill="black"/>
<path d="M20.9053 15.2394L33.4185 6.76498C33.2399 6.33231 33.0376 5.91455 32.8084 5.51172L21.2445 14.3413C21.1433 14.6456 21.0303 14.947 20.9053 15.2394Z" fill="black"/>
<path d="M19.9017 4.78351L26.5198 0.471682C25.9634 0.301596 25.3861 0.17627 24.7969 0.0957031L19.5654 4.31204C19.6815 4.46422 19.7946 4.62237 19.9047 4.78052L19.9017 4.78351Z" fill="black"/>
<path d="M17.2266 19.9634C18.9704 21.154 21.0772 21.8492 23.3448 21.8492C29.3618 21.8492 34.2391 16.9585 34.2391 10.9249C34.2391 9.64183 34.016 8.40946 33.6112 7.2666L17.2266 19.9634Z" fill="black"/>
<path d="M18.7268 3.33607L23.9702 0.0179038C23.7648 0.00596792 23.5536 0 23.3423 0C22.6727 0 22.0181 0.0626632 21.3842 0.176054L18.3311 2.94219C18.4679 3.0705 18.5989 3.19881 18.7268 3.33308V3.33607Z" fill="black"/>
<path d="M12.5634 9.36133L1.66016 16.7228C1.90417 17.1137 2.17199 17.4867 2.46362 17.8417L12.4771 10.158C12.495 9.88949 12.5248 9.62392 12.5634 9.36133Z" fill="black"/>
<path d="M15.5071 18.5098L10.2607 21.8309C10.469 21.8429 10.6803 21.8488 10.8916 21.8488C11.5641 21.8488 12.2218 21.7862 12.8616 21.6698L15.9028 18.9066C15.7659 18.7783 15.632 18.647 15.5041 18.5098H15.5071Z" fill="black"/>
<path d="M13.3345 6.60645L0.821289 15.0869C0.999836 15.5195 1.20219 15.9373 1.43133 16.3371L12.9982 7.50163C13.0994 7.19727 13.2125 6.89887 13.3375 6.60645H13.3345Z" fill="black"/>
<path d="M14.334 17.0625L7.71582 21.3743C8.27229 21.5444 8.8496 21.6727 9.4388 21.7503L14.6732 17.534C14.5542 17.3818 14.4441 17.2236 14.334 17.0625Z" fill="black"/>
<path d="M12.4748 11.6465L2.75293 18.1814C3.05944 18.5275 3.38975 18.8557 3.73792 19.1601L12.5433 12.3656C12.5105 12.1299 12.4867 11.8912 12.4719 11.6495L12.4748 11.6465Z" fill="black"/>
<path d="M12.793 13.6514L4.09473 19.4582C4.46968 19.7595 4.86248 20.0341 5.27611 20.2847L12.9775 14.2959C12.909 14.084 12.8465 13.8692 12.79 13.6514H12.793Z" fill="black"/>
<path d="M13.4269 15.4483L5.72559 20.5419C6.17791 20.7896 6.65106 21.0014 7.13611 21.1805L13.7007 16.0093C13.6025 15.8243 13.5102 15.6363 13.424 15.4453L13.4269 15.4483Z" fill="black"/>
<path d="M10.8944 0C4.87732 0 0 4.89071 0 10.9243C0 12.2074 0.223184 13.4398 0.627891 14.5856L17.0096 1.88288C15.2658 0.695263 13.1619 0 10.8944 0Z" fill="black"/>
<path d="M12.4746 11.6467C12.4895 11.8884 12.5133 12.1272 12.546 12.3629L17.1198 8.83287L20.8098 6.39497C20.7235 6.204 20.6312 6.01899 20.536 5.83398L17.1198 8.52253L12.4746 11.6438V11.6467Z" fill="black"/>
<path d="M12.793 13.652C12.8465 13.8698 12.912 14.0847 12.9804 14.2965L17.1198 11.0798L21.4436 8.19434C21.387 7.97651 21.3246 7.76167 21.2561 7.5498L17.1198 10.7665L12.7959 13.655L12.793 13.652Z" fill="black"/>
<path d="M13.4268 15.4483C13.5131 15.6393 13.6053 15.8273 13.7035 16.0123L17.1197 13.3208L21.7649 10.2025C21.75 9.96083 21.7262 9.71913 21.6935 9.4834L17.1197 13.0104L13.4268 15.4513V15.4483Z" fill="black"/>
<path d="M12.5638 9.36125C12.5252 9.62384 12.4984 9.88941 12.4775 10.158L17.1198 6.59811L19.9021 4.78684C19.792 4.62869 19.6819 4.47054 19.5629 4.31836L17.1168 6.28777L12.5609 9.36424L12.5638 9.36125Z" fill="black"/>
<path d="M17.1195 4.35081L18.7264 3.33328C18.5985 3.199 18.4675 3.06771 18.3307 2.94238L17.1195 4.04048L13.3373 6.6037C13.2123 6.89613 13.0992 7.19453 12.998 7.49889L17.1195 4.34783V4.35081Z" fill="black"/>
<path d="M14.334 17.0626C14.4441 17.2207 14.5542 17.3789 14.6733 17.5341L17.1194 15.5617L21.6753 12.4852C21.714 12.2226 21.7408 11.957 21.7586 11.6885L17.1164 15.2483L14.3311 17.0626H14.334Z" fill="black"/>
<path d="M17.1197 17.4888L15.5068 18.5094C15.6378 18.6436 15.7717 18.7749 15.9056 18.9062L17.1167 17.8051L20.9019 15.2419C21.0269 14.9495 21.14 14.6481 21.2412 14.3438L17.1167 17.4948L17.1197 17.4888Z" fill="black"/>
</g>
<defs>
<clipPath id="clip0_39694_4803">
<rect width="110" height="24" fill="white"/>
</clipPath>
</defs>
</svg>
